<?xml version="1.0" standalone="no"?>
<!DOCTYPE svg PUBLIC "-//W3C//DTD SVG 20010904//EN"
 "http://www.w3.org/TR/2001/REC-SVG-20010904/DTD/svg10.dtd">
<svg version="1.0" xmlns="http://www.w3.org/2000/svg"
 width="200.000000pt" height="148.000000pt" viewBox="0 0 200.000000 148.000000"
 preserveAspectRatio="xMidYMid meet">
<metadata>
Created by potrace 1.16, written by Peter Selinger 2001-2019
</metadata>
<g transform="translate(0.000000,148.000000) scale(0.100000,-0.100000)"
fill="#000000" stroke="none">
<path d="M257 1470 c-96 -24 -183 -97 -225 -188 -23 -48 -27 -71 -27 -142 0
-72 4 -93 27 -140 15 -30 45 -73 67 -94 l40 -39 -31 -61 c-83 -164 -98 -250
-98 -557 l0 -249 996 0 996 0 -5 263 c-4 221 -8 274 -25 342 -21 80 -67 201
-92 242 -13 20 -10 26 29 68 66 71 86 124 86 225 0 71 -4 94 -27 142 -33 70
-96 133 -168 167 -45 21 -70 26 -140 26 -73 0 -93 -4 -142 -28 -34 -17 -77
-50 -107 -83 l-51 -55 -107 28 c-95 24 -126 28 -253 27 -118 0 -162 -4 -235
-23 -49 -13 -97 -27 -105 -31 -10 -6 -29 8 -68 50 -68 76 -135 109 -228 115
-38 2 -86 0 -107 -5z m474 -728 c200 -104 150 -395 -74 -436 -85 -16 -196 43
-238 126 -103 202 111 415 312 310z m774 9 c205 -94 173 -396 -47 -440 -173
-35 -316 123 -267 297 16 56 90 136 140 151 55 15 131 12 174 -8z m-251 -604
c7 -19 7 -34 0 -45 -10 -15 -33 -17 -167 -20 l-157 -3 -17 -32 -18 -32 -3 32
c-3 29 -7 32 -40 35 -35 3 -37 5 -40 42 -2 24 2 42 10 47 7 5 105 8 218 6
l205 -2 9 -28z"/>
<path d="M559 601 c-74 -74 10 -191 105 -146 61 29 74 99 27 146 -22 21 -39
29 -66 29 -27 0 -44 -8 -66 -29z"/>
<path d="M1380 633 c-28 -11 -59 -46 -65 -74 -8 -37 18 -93 51 -108 69 -31
144 12 144 83 0 62 -76 120 -130 99z"/>
</g>
</svg>
