<?xml version="1.0" standalone="no"?>
<!DOCTYPE svg PUBLIC "-//W3C//DTD SVG 20010904//EN"
 "http://www.w3.org/TR/2001/REC-SVG-20010904/DTD/svg10.dtd">
<svg version="1.0" xmlns="http://www.w3.org/2000/svg"
 width="200.000000pt" height="80.000000pt" viewBox="0 0 200.000000 80.000000"
 preserveAspectRatio="xMidYMid meet">

<g transform="translate(0.000000,80.000000) scale(0.100000,-0.100000)"
fill="#000000" stroke="none">
<path d="M720 749 c-46 -19 -81 -63 -163 -206 -45 -79 -84 -143 -87 -143 -6 0
-40 200 -40 237 0 12 8 34 17 51 33 58 23 62 -167 62 -149 0 -171 -2 -177 -16
-3 -9 -2 -22 3 -29 5 -7 17 -23 27 -37 11 -16 34 -119 67 -296 27 -150 54
-280 59 -291 21 -38 90 -43 125 -8 13 13 83 124 156 248 73 123 136 228 140
232 4 5 21 2 38 -7 17 -9 40 -16 52 -16 92 0 143 132 77 198 -27 27 -89 37
-127 21z"/>
<path d="M1590 375 l0 -205 44 0 c31 0 46 5 50 16 6 15 8 15 24 2 27 -25 60
-30 97 -18 84 28 104 201 33 278 -29 30 -93 30 -125 0 l-23 -22 6 77 7 77 -57
0 -56 0 0 -205z m182 -22 c5 -18 5 -48 0 -65 -7 -28 -13 -33 -38 -33 -28 0
-29 2 -32 54 -4 70 2 83 35 79 21 -2 29 -10 35 -35z"/>
<path d="M1005 469 c-54 -9 -88 -47 -87 -99 1 -29 8 -50 22 -65 18 -20 19 -23
5 -35 -17 -14 -20 -56 -5 -65 6 -4 -2 -18 -20 -35 -36 -34 -38 -60 -6 -97 21
-24 32 -28 95 -31 82 -5 151 15 176 51 8 12 15 40 15 63 0 59 -24 76 -112 83
-86 7 -109 31 -30 31 71 0 112 34 112 95 0 34 4 44 20 48 13 3 20 14 20 30 0
25 -2 26 -84 29 -47 2 -101 0 -121 -3z m65 -70 c24 -44 -13 -95 -45 -63 -18
18 -19 38 -5 65 14 25 36 24 50 -2z m24 -245 c24 -9 19 -33 -10 -44 -35 -14
-67 -12 -89 4 -16 12 -17 16 -6 30 14 16 74 22 105 10z"/>
<path d="M1311 457 c-64 -32 -91 -144 -54 -217 27 -53 92 -83 164 -76 82 8 89
12 89 57 0 37 -1 38 -26 29 -35 -14 -108 -12 -122 2 -30 30 -13 38 78 38 l90
0 0 45 c0 57 -21 100 -60 120 -35 18 -126 20 -159 2z m119 -77 c10 -19 8 -20
-35 -20 -25 0 -45 2 -45 4 0 39 61 51 80 16z"/>
<path d="M785 436 c-18 -26 -11 -53 15 -61 26 -8 49 4 56 31 13 50 -43 73 -71
30z"/>
<path d="M732 350 c-18 -7 -22 -15 -17 -30 7 -21 -32 -167 -47 -176 -24 -15
-1 -24 60 -24 71 0 88 6 73 24 -5 7 1 44 17 94 19 62 23 88 15 100 -12 20 -67
26 -101 12z"/>
</g>
</svg>
